<?xml version="1.0" encoding="UTF-8"?><svg id="Layer_1" xmlns="http://www.w3.org/2000/svg" viewBox="0 0 1055.489 405.461"><rect y="189.815" width="77.643" height="137.528" fill="#fff"/><rect x="107.787" y="189.815" width="77.643" height="137.528" fill="#fff"/><polygon points="247.077 293.969 247.077 189.815 206.174 189.815 206.174 327.343 211.288 327.343 247.077 293.969" fill="#fff"/><polygon points="0 189.815 243.978 .244 309.875 .244 77.643 189.815 0 189.815" fill="#fff"/><polygon points="107.787 189.815 336.697 .852 402.856 .852 185.43 189.815 107.787 189.815" fill="#fff"/><polygon points="206.174 189.815 426.639 0 552.163 106.847 533.074 115.224 427.6 32.549 247.077 189.815 206.174 189.815" fill="#fff"/><path d="M420.136,122.551c-10.927-.073-21.854-.147-32.781-.22-.018-8.53-.094-17.06-.228-25.589,10.988.556,21.976,1.111,32.964,1.667.026,8.047.04,16.094.044,24.142Z" fill="#fff"/><path d="M420.092,154.034c-10.988.556-21.976,1.111-32.964,1.667.134-8.529.21-17.059.228-25.589,10.927-.073,21.854-.146,32.781-.22-.003,8.048-.018,16.095-.044,24.142Z" fill="#fff"/><path d="M463.201,122.84c-10.927-.074-21.854-.146-32.781-.22.001-7.896.006-15.792.014-23.688,10.988.555,21.976,1.112,32.964,1.667-.117,7.413-.182,14.827-.198,22.241Z" fill="#fff"/><path d="M463.398,151.844c-10.988.555-21.976,1.112-32.964,1.667-.008-7.896-.013-15.792-.014-23.688,10.927-.073,21.854-.146,32.781-.22.015,7.414.081,14.828.198,22.241Z" fill="#fff"/><path d="M310.613,174.532h-14.569v10.047h14.055v5.931h-14.055v19.904h-6.309v-41.812h20.878v5.931Z" fill="#fff"/><path d="M338.043,184.038h6.119v26.376h-6.119v-2.762c-2.51,2.347-5.209,3.521-8.097,3.521-3.647,0-6.662-1.318-9.045-3.955-2.366-2.69-3.548-6.048-3.548-10.074,0-3.952,1.182-7.247,3.548-9.883,2.365-2.636,5.325-3.955,8.882-3.955,3.069,0,5.822,1.264,8.26,3.791v-3.059ZM323.582,197.144c0,2.529.677,4.586,2.031,6.176,1.39,1.606,3.142,2.41,5.254,2.41,2.256,0,4.079-.777,5.469-2.329,1.39-1.608,2.085-3.647,2.085-6.119s-.695-4.514-2.085-6.122c-1.39-1.57-3.194-2.356-5.415-2.356-2.094,0-3.846.795-5.254,2.383-1.39,1.608-2.085,3.593-2.085,5.958Z" fill="#fff"/><path d="M360.164,164.676v22.421c2.438-2.526,5.199-3.791,8.287-3.791,3.556,0,6.517,1.327,8.882,3.982,2.365,2.636,3.548,5.922,3.548,9.856,0,4.062-1.192,7.42-3.575,10.074-2.365,2.636-5.353,3.955-8.964,3.955-3.051,0-5.777-1.174-8.178-3.521v2.762h-6.093v-45.738h6.093ZM374.652,197.416c0-2.529-.687-4.586-2.058-6.176-1.39-1.624-3.133-2.437-5.227-2.437-2.239,0-4.061.786-5.47,2.356-1.39,1.554-2.085,3.575-2.085,6.066,0,2.565.686,4.615,2.058,6.149,1.372,1.57,3.178,2.356,5.417,2.356,2.112,0,3.863-.786,5.254-2.356,1.408-1.59,2.112-3.575,2.112-5.958Z" fill="#fff"/><path d="M389.545,184.038h6.093v2.356c1.119-1.174,2.112-1.976,2.979-2.41.884-.451,1.931-.678,3.141-.678,1.607,0,3.287.523,5.037,1.572l-2.789,5.578c-1.155-.831-2.284-1.246-3.384-1.246-3.322,0-4.983,2.511-4.983,7.528v13.676h-6.093v-26.376Z" fill="#fff"/><path d="M412.426,173.07c0-1.064.387-1.985,1.164-2.762.776-.775,1.706-1.163,2.789-1.163,1.1,0,2.039.389,2.816,1.163.776.759,1.164,1.689,1.164,2.789s-.389,2.041-1.164,2.816c-.758.777-1.689,1.166-2.789,1.166s-2.04-.389-2.816-1.166c-.777-.775-1.164-1.722-1.164-2.843ZM419.439,184.038v26.376h-6.093v-26.376h6.093Z" fill="#fff"/><path d="M449.901,185.175v8.098c-1.39-1.698-2.635-2.861-3.737-3.494-1.082-.649-2.356-.975-3.818-.975-2.293,0-4.197.804-5.714,2.41-1.517,1.608-2.275,3.62-2.275,6.039,0,2.475.731,4.505,2.194,6.095,1.48,1.588,3.366,2.383,5.659,2.383,1.463,0,2.753-.317,3.873-.948,1.084-.613,2.356-1.806,3.818-3.575v8.042c-2.474,1.282-4.946,1.925-7.42,1.925-4.079,0-7.492-1.318-10.236-3.955-2.744-2.654-4.116-5.949-4.116-9.883s1.39-7.258,4.17-9.966,6.192-4.062,10.237-4.062c2.599,0,5.054.624,7.365,1.868Z" fill="#fff"/><path d="M477.467,184.038h6.119v26.376h-6.119v-2.762c-2.51,2.347-5.209,3.521-8.097,3.521-3.647,0-6.662-1.318-9.045-3.955-2.366-2.69-3.548-6.048-3.548-10.074,0-3.952,1.182-7.247,3.548-9.883,2.365-2.636,5.325-3.955,8.882-3.955,3.069,0,5.822,1.264,8.26,3.791v-3.059ZM463.006,197.144c0,2.529.677,4.586,2.031,6.176,1.39,1.606,3.142,2.41,5.254,2.41,2.256,0,4.079-.777,5.469-2.329,1.39-1.608,2.085-3.647,2.085-6.119s-.695-4.514-2.085-6.122c-1.39-1.57-3.194-2.356-5.415-2.356-2.094,0-3.846.795-5.254,2.383-1.39,1.608-2.085,3.593-2.085,5.958Z" fill="#fff"/><path d="M514.022,185.175v8.098c-1.39-1.698-2.635-2.861-3.737-3.494-1.082-.649-2.356-.975-3.818-.975-2.293,0-4.197.804-5.714,2.41-1.517,1.608-2.275,3.62-2.275,6.039,0,2.475.731,4.505,2.194,6.095,1.48,1.588,3.366,2.383,5.659,2.383,1.463,0,2.753-.317,3.873-.948,1.084-.613,2.356-1.806,3.818-3.575v8.042c-2.474,1.282-4.946,1.925-7.42,1.925-4.079,0-7.492-1.318-10.236-3.955-2.744-2.654-4.116-5.949-4.116-9.883s1.39-7.258,4.17-9.966,6.192-4.062,10.237-4.062c2.599,0,5.054.624,7.365,1.868Z" fill="#fff"/><path d="M521.223,173.07c0-1.064.387-1.985,1.164-2.762.776-.775,1.706-1.163,2.789-1.163,1.1,0,2.039.389,2.816,1.163.776.759,1.164,1.689,1.164,2.789s-.389,2.041-1.164,2.816c-.758.777-1.689,1.166-2.789,1.166s-2.04-.389-2.816-1.166c-.777-.775-1.164-1.722-1.164-2.843ZM528.236,184.038v26.376h-6.093v-26.376h6.093Z" fill="#fff"/><path d="M536.927,197.036c0-3.809,1.363-7.049,4.089-9.722,2.725-2.672,6.048-4.009,9.965-4.009s7.275,1.345,10.019,4.036c2.708,2.69,4.062,5.994,4.062,9.91,0,3.955-1.363,7.267-4.089,9.939-2.744,2.654-6.111,3.982-10.1,3.982-3.955,0-7.267-1.354-9.938-4.062-2.672-2.672-4.009-6.03-4.009-10.074ZM543.155,197.144c0,2.636.704,4.723,2.112,6.256,1.444,1.552,3.349,2.329,5.714,2.329,2.383,0,4.287-.768,5.714-2.302,1.426-1.534,2.139-3.584,2.139-6.146s-.713-4.613-2.139-6.149c-1.445-1.552-3.349-2.329-5.714-2.329-2.329,0-4.215.777-5.659,2.329-1.445,1.554-2.167,3.557-2.167,6.012ZM560.135,171.04l-9.857,8.936-3.33-2.057,7.447-9.859,5.741,2.98Z" fill="#fff"/><path d="M573.727,184.038h6.119v2.437c2.13-2.111,4.532-3.169,7.203-3.169,3.069,0,5.462.966,7.176,2.899,1.48,1.642,2.221,4.323,2.221,8.042v16.167h-6.121v-14.732c0-2.601-.36-4.395-1.082-5.39-.704-1.011-1.986-1.516-3.846-1.516-2.022,0-3.457.669-4.305,2.003-.831,1.318-1.246,3.62-1.246,6.905v12.729h-6.119v-26.376Z" fill="#fff"/><path d="M634.002,205.512l-11.862-21.473h7.068l8.07,15.165,7.528-15.165h6.879l-21.014,40.728h-6.959l10.291-19.255Z" fill="#fff"/><path d="M702.184,174.831l-5.118,3.032c-.958-1.66-1.868-2.742-2.735-3.25-.903-.577-2.067-.865-3.493-.865-1.752,0-3.205.496-4.36,1.489-1.155.975-1.733,2.203-1.733,3.683,0,2.039,1.516,3.683,4.549,4.927l4.17,1.707c3.394,1.372,5.877,3.047,7.447,5.024,1.571,1.976,2.357,4.402,2.357,7.272,0,3.845-1.282,7.022-3.846,9.531-2.581,2.529-5.786,3.793-9.614,3.793-3.628,0-6.625-1.076-8.989-3.223-2.33-2.149-3.783-5.174-4.36-9.073l6.39-1.408c.289,2.455.795,4.152,1.517,5.091,1.299,1.806,3.196,2.708,5.686,2.708,1.968,0,3.602-.66,4.902-1.976,1.299-1.318,1.949-2.989,1.949-5.01,0-.813-.112-1.559-.338-2.234-.227-.678-.578-1.3-1.057-1.868s-1.097-1.1-1.855-1.599c-.758-.496-1.661-.97-2.708-1.422l-4.034-1.678c-5.723-2.421-8.584-5.958-8.584-10.615,0-3.142,1.2-5.769,3.601-7.88,2.401-2.131,5.39-3.196,8.964-3.196,4.82,0,8.584,2.347,11.292,7.04Z" fill="#fff"/><path d="M735.951,198.662h-18.902c.162,2.165.867,3.89,2.112,5.172,1.245,1.264,2.843,1.895,4.793,1.895,1.516,0,2.771-.362,3.764-1.085.975-.721,2.085-2.057,3.33-4.006l5.146,2.87c-.795,1.354-1.635,2.515-2.519,3.481-.885.966-1.832,1.758-2.844,2.383-1.011.622-2.103,1.078-3.276,1.368-1.173.287-2.447.433-3.818.433-3.937,0-7.095-1.264-9.478-3.793-2.384-2.544-3.575-5.92-3.575-10.128,0-4.17,1.155-7.546,3.466-10.126,2.329-2.547,5.417-3.82,9.261-3.82,3.882,0,6.95,1.237,9.207,3.71,2.239,2.457,3.358,5.859,3.358,10.209l-.027,1.437ZM729.696,193.679c-.849-3.25-2.898-4.875-6.148-4.875-.741,0-1.435.112-2.085.339s-1.242.55-1.774.975-.988.934-1.368,1.529c-.378.597-.668,1.273-.866,2.032h12.24Z" fill="#fff"/><path d="M744.832,184.038h6.093v2.356c1.119-1.174,2.112-1.976,2.979-2.41.884-.451,1.931-.678,3.141-.678,1.607,0,3.287.523,5.037,1.572l-2.789,5.578c-1.155-.831-2.284-1.246-3.384-1.246-3.322,0-4.983,2.511-4.983,7.528v13.676h-6.093v-26.376Z" fill="#fff"/><path d="M773.453,184.038l6.824,14.813,6.798-14.813h6.85l-13.702,28.19-13.594-28.19h6.825Z" fill="#fff"/><path d="M799.339,173.07c0-1.064.387-1.985,1.164-2.762.776-.775,1.706-1.163,2.789-1.163,1.1,0,2.039.389,2.816,1.163.776.759,1.164,1.689,1.164,2.789s-.389,2.041-1.164,2.816c-.758.777-1.689,1.166-2.789,1.166s-2.04-.389-2.816-1.166c-.777-.775-1.164-1.722-1.164-2.843ZM806.352,184.038v26.376h-6.093v-26.376h6.093Z" fill="#fff"/><path d="M836.815,185.175v8.098c-1.39-1.698-2.635-2.861-3.737-3.494-1.082-.649-2.356-.975-3.818-.975-2.293,0-4.197.804-5.714,2.41-1.517,1.608-2.275,3.62-2.275,6.039,0,2.475.731,4.505,2.194,6.095,1.48,1.588,3.366,2.383,5.659,2.383,1.463,0,2.753-.317,3.873-.948,1.084-.613,2.356-1.806,3.818-3.575v8.042c-2.474,1.282-4.946,1.925-7.42,1.925-4.079,0-7.492-1.318-10.236-3.955-2.744-2.654-4.116-5.949-4.116-9.883s1.39-7.258,4.17-9.966,6.192-4.062,10.237-4.062c2.599,0,5.054.624,7.365,1.868Z" fill="#fff"/><path d="M844.017,173.07c0-1.064.387-1.985,1.164-2.762.776-.775,1.706-1.163,2.789-1.163,1.1,0,2.039.389,2.816,1.163.776.759,1.164,1.689,1.164,2.789s-.389,2.041-1.164,2.816c-.758.777-1.689,1.166-2.789,1.166s-2.04-.389-2.816-1.166c-.777-.775-1.164-1.722-1.164-2.843ZM851.03,184.038v26.376h-6.093v-26.376h6.093Z" fill="#fff"/><path d="M859.72,197.036c0-3.809,1.363-7.049,4.089-9.722,2.725-2.672,6.048-4.009,9.965-4.009s7.275,1.345,10.019,4.036c2.708,2.69,4.062,5.994,4.062,9.91,0,3.955-1.363,7.267-4.089,9.939-2.744,2.654-6.111,3.982-10.1,3.982-3.955,0-7.267-1.354-9.938-4.062-2.672-2.672-4.009-6.03-4.009-10.074ZM865.948,197.144c0,2.636.704,4.723,2.112,6.256,1.444,1.552,3.349,2.329,5.714,2.329,2.383,0,4.287-.768,5.714-2.302,1.426-1.534,2.139-3.584,2.139-6.146s-.713-4.613-2.139-6.149c-1.445-1.552-3.349-2.329-5.714-2.329-2.329,0-4.215.777-5.659,2.329-1.445,1.554-2.167,3.557-2.167,6.012Z" fill="#fff"/><path d="M911.847,188.534l-5.037,2.679c-.795-1.624-1.779-2.437-2.952-2.437-.559,0-1.038.186-1.435.555-.397.371-.595.844-.595,1.422,0,1.013,1.173,2.014,3.52,3.007,3.232,1.39,5.406,2.672,6.526,3.845,1.119,1.174,1.679,2.753,1.679,4.741,0,2.544-.939,4.676-2.816,6.389-1.823,1.626-4.025,2.439-6.607,2.439-4.424,0-7.556-2.158-9.397-6.472l5.199-2.412c.722,1.264,1.273,2.068,1.653,2.412.74.685,1.625,1.029,2.653,1.029,2.058,0,3.087-.939,3.087-2.816,0-1.085-.794-2.095-2.383-3.034-.614-.305-1.227-.604-1.841-.894-.614-.287-1.236-.586-1.868-.894-1.77-.867-3.015-1.731-3.737-2.598-.921-1.103-1.381-2.52-1.381-4.253,0-2.291.785-4.188,2.356-5.686,1.607-1.498,3.556-2.248,5.849-2.248,3.376,0,5.886,1.743,7.529,5.228Z" fill="#fff"/><path d="M965.378,174.831l-5.118,3.032c-.958-1.66-1.868-2.742-2.735-3.25-.903-.577-2.067-.865-3.493-.865-1.752,0-3.205.496-4.36,1.489-1.155.975-1.733,2.203-1.733,3.683,0,2.039,1.516,3.683,4.549,4.927l4.17,1.707c3.394,1.372,5.877,3.047,7.447,5.024,1.571,1.976,2.357,4.402,2.357,7.272,0,3.845-1.282,7.022-3.846,9.531-2.581,2.529-5.786,3.793-9.614,3.793-3.628,0-6.625-1.076-8.989-3.223-2.33-2.149-3.783-5.174-4.36-9.073l6.39-1.408c.289,2.455.795,4.152,1.517,5.091,1.299,1.806,3.196,2.708,5.686,2.708,1.968,0,3.602-.66,4.902-1.976,1.299-1.318,1.949-2.989,1.949-5.01,0-.813-.112-1.559-.338-2.234-.227-.678-.578-1.3-1.057-1.868s-1.097-1.1-1.855-1.599c-.758-.496-1.661-.97-2.708-1.422l-4.034-1.678c-5.723-2.421-8.584-5.958-8.584-10.615,0-3.142,1.2-5.769,3.601-7.88,2.401-2.131,5.39-3.196,8.964-3.196,4.82,0,8.584,2.347,11.292,7.04Z" fill="#fff"/><path d="M981.218,224.766h-6.093v-40.728h6.093v2.87c2.401-2.401,5.127-3.602,8.178-3.602,3.629,0,6.617,1.336,8.964,4.009,2.383,2.654,3.575,6.003,3.575,10.047,0,3.952-1.183,7.247-3.548,9.883-2.347,2.618-5.308,3.928-8.882,3.928-3.088,0-5.849-1.237-8.287-3.71v17.303ZM995.706,197.389c0-2.529-.687-4.586-2.058-6.176-1.39-1.606-3.142-2.41-5.254-2.41-2.239,0-4.053.777-5.444,2.329-1.39,1.554-2.085,3.593-2.085,6.119,0,2.475.695,4.514,2.085,6.122,1.372,1.57,3.178,2.356,5.417,2.356,2.112,0,3.854-.795,5.227-2.383,1.408-1.59,2.112-3.575,2.112-5.958Z" fill="#fff"/><path d="M1036.324,200.259h-17.9l-4.658,10.155h-6.797l20.688-44.438,19.959,44.438h-6.905l-4.387-10.155ZM1033.752,194.328l-6.201-14.217-6.499,14.217h12.7Z" fill="#fff"/><path d="M282.552,314.639v-86.681h61.44v15.63h-39.13v17.822h39.13v15.751h-39.13v37.478h-22.31Z" fill="#fff"/><path d="M346.273,314.639l39.7-86.681h25.517l40.271,86.681h-25.374l-8.482-18.415h-40.413l-7.269,18.415h-23.949ZM412.701,281.658l-11.689-28.004c-.333-.831-.76-2.25-1.283-4.265-.523-2.012-1.069-4.478-1.639-7.4-.618,2.803-1.212,5.318-1.782,7.548-.569,2.23-.997,3.721-1.282,4.471l-11.262,27.649h28.938Z" fill="#fff"/><path d="M456.036,303.626l12.403-11.664c1.567,3.198,4.086,5.713,7.554,7.55,3.468,1.835,7.365,2.753,11.689,2.753,5.227,0,9.361-1.026,12.403-3.079,3.04-2.053,4.561-4.817,4.561-8.291,0-4.103-5.061-8.19-15.182-12.255-3.279-1.302-5.869-2.369-7.769-3.198-9.123-3.946-15.442-7.806-18.959-11.574-3.517-3.771-5.274-8.26-5.274-13.472,0-7.144,3.409-13.014,10.228-17.613,6.818-4.599,15.668-6.899,26.55-6.899,6.319,0,11.772.918,16.358,2.753s8.636,4.707,12.153,8.614l-13.186,10.481c-1.567-2.526-3.647-4.411-6.236-5.655-2.59-1.244-5.714-1.864-9.374-1.864-4.418,0-7.982.916-10.691,2.753-2.708,1.835-4.062,4.213-4.062,7.135,0,4.579,5.368,8.763,16.108,12.551,2.138.75,3.777,1.343,4.918,1.776,8.838,3.355,15.383,7.146,19.636,11.368,4.251,4.224,6.379,9.041,6.379,14.447,0,8.134-3.339,14.617-10.015,19.45-6.676,4.837-15.645,7.254-26.907,7.254-7.982,0-14.825-1.145-20.527-3.434s-9.955-5.585-12.759-9.888Z" fill="#fff"/><path d="M544.489,314.639v-86.681h61.44v15.63h-39.13v17.822h39.13v15.751h-39.13v21.729h39.13v15.749h-61.44Z" fill="#fff"/><path d="M703.291,314.639h-25.73l-27.441-40.499v40.499h-22.31v-86.681h31.931c12.687,0,22.191,2.044,28.51,6.128s9.48,10.234,9.48,18.444c0,5.96-2.163,11.051-6.487,15.275-4.324,4.224-9.907,6.69-16.749,7.402l28.795,39.432ZM650.12,264.903h3.349c9.028,0,14.991-.82,17.89-2.457,2.898-1.637,4.348-4.489,4.348-8.556,0-4.262-1.556-7.292-4.669-9.088s-8.969-2.695-17.569-2.695h-3.349v22.796Z" fill="#fff"/><path d="M800.297,250.515c-4.515-3.355-9.148-5.812-13.899-7.37-4.752-1.559-9.836-2.34-15.253-2.34-11.118,0-19.982,2.764-26.586,8.289-6.606,5.527-9.907,12.949-9.907,22.264,0,9.117,3.064,16.351,9.194,21.7s14.493,8.022,25.089,8.022c6.034,0,11.642-.838,16.821-2.515,5.179-1.678,9.979-4.195,14.397-7.55l-.143,19.005c-4.752,2.331-9.728,4.067-14.932,5.212-5.203,1.143-10.68,1.716-16.429,1.716-16.632,0-30.281-4.292-40.948-12.877-10.667-8.585-16.001-19.49-16.001-32.713s5.346-24.058,16.036-32.625c10.692-8.563,24.471-12.848,41.34-12.848,5.655,0,11.12.494,16.394,1.48,5.274.988,10.477,2.508,15.61,4.559l-.785,18.592Z" fill="#fff"/><path d="M927.88,271.476c0,6.196-1.39,12.057-4.169,17.584-2.78,5.527-6.784,10.382-12.01,14.566-5.418,4.303-11.524,7.599-18.318,9.888-6.795,2.288-13.828,3.434-21.097,3.434-6.369,0-12.605-.898-18.71-2.693-6.106-1.797-11.701-4.372-16.785-7.727-6.557-4.341-11.582-9.533-15.075-15.572-3.492-6.039-5.238-12.533-5.238-19.479,0-6.236,1.378-12.089,4.133-17.557,2.755-5.466,6.795-10.332,12.118-14.595,5.226-4.222,11.297-7.498,18.21-9.829,6.913-2.327,14.029-3.492,21.348-3.492,7.269,0,14.338,1.166,21.204,3.492,6.866,2.331,12.936,5.607,18.211,9.829,5.274,4.262,9.289,9.138,12.045,14.624,2.755,5.488,4.134,11.329,4.134,17.528ZM872.286,300.428c9.454,0,17.259-2.753,23.414-8.26,6.153-5.506,9.23-12.403,9.23-20.692,0-8.21-3.113-15.118-9.336-20.723-6.226-5.605-13.995-8.408-23.307-8.408-9.457,0-17.297,2.791-23.521,8.376-6.225,5.587-9.336,12.504-9.336,20.755,0,8.367,3.064,15.284,9.194,20.752,6.13,5.466,14.016,8.199,23.664,8.199Z" fill="#fff"/><path d="M946.697,314.639v-86.681h23.165l46.186,50.445c1.329,1.422,2.791,3.425,4.384,6.009,1.591,2.587,3.243,5.637,4.954,9.149-.524-2.565-.904-5.111-1.141-7.638-.238-2.526-.357-5.684-.357-9.475v-48.491h21.312v86.681h-21.881l-47.469-51.393c-1.332-1.422-2.78-3.425-4.349-6.009-1.567-2.585-3.232-5.675-4.989-9.268.522,2.488.902,5.003,1.141,7.55.237,2.547.356,5.753.356,9.621v49.499h-21.312Z" fill="#fff"/><path d="M34.7,355.472l-5.118,3.032c-.957-1.66-1.868-2.742-2.735-3.25-.903-.577-2.066-.865-3.492-.865-1.752,0-3.205.496-4.361,1.489-1.154.975-1.731,2.203-1.731,3.683,0,2.039,1.516,3.683,4.548,4.927l4.17,1.707c3.395,1.372,5.877,3.047,7.447,5.024,1.572,1.976,2.358,4.402,2.358,7.272,0,3.845-1.282,7.022-3.847,9.531-2.58,2.529-5.785,3.793-9.614,3.793-3.627,0-6.625-1.076-8.989-3.223-2.329-2.149-3.782-5.174-4.359-9.073l6.389-1.408c.29,2.455.795,4.152,1.518,5.091,1.298,1.806,3.196,2.708,5.686,2.708,1.967,0,3.602-.66,4.902-1.976,1.298-1.318,1.949-2.989,1.949-5.01,0-.813-.112-1.559-.339-2.234-.227-.678-.577-1.3-1.055-1.868s-1.098-1.1-1.855-1.599c-.759-.496-1.662-.97-2.708-1.422l-4.036-1.678c-5.722-2.421-8.583-5.958-8.583-10.615,0-3.142,1.199-5.769,3.6-7.88,2.401-2.131,5.39-3.196,8.965-3.196,4.819,0,8.583,2.347,11.291,7.04Z" fill="#fff"/><path d="M43.977,377.677c0-3.809,1.363-7.049,4.089-9.722s6.048-4.009,9.966-4.009,7.274,1.345,10.018,4.036c2.708,2.69,4.062,5.994,4.062,9.91,0,3.955-1.363,7.267-4.089,9.939-2.744,2.654-6.111,3.982-10.099,3.982-3.955,0-7.267-1.354-9.939-4.062-2.672-2.672-4.009-6.03-4.009-10.074ZM50.207,377.785c0,2.636.703,4.723,2.111,6.256,1.444,1.552,3.351,2.329,5.715,2.329,2.383,0,4.287-.768,5.713-2.302s2.14-3.584,2.14-6.146-.714-4.613-2.14-6.149c-1.444-1.552-3.348-2.329-5.713-2.329-2.329,0-4.215.777-5.659,2.329-1.446,1.554-2.167,3.557-2.167,6.012Z" fill="#fff"/><path d="M87.647,345.317v45.738h-6.093v-45.738h6.093Z" fill="#fff"/><path d="M104.451,364.679v15.138c0,4.368,1.725,6.553,5.172,6.553s5.174-2.185,5.174-6.553v-15.138h6.093v15.273c0,2.113-.263,3.937-.786,5.47-.505,1.372-1.381,2.609-2.627,3.71-2.057,1.788-4.676,2.681-7.853,2.681-3.157,0-5.767-.894-7.824-2.681-1.264-1.1-2.158-2.338-2.681-3.71-.505-1.228-.759-3.052-.759-5.47v-15.273h6.093Z" fill="#fff"/><path d="M152.102,365.815v8.098c-1.39-1.698-2.636-2.861-3.737-3.494-1.082-.649-2.356-.975-3.818-.975-2.293,0-4.197.804-5.715,2.41-1.516,1.608-2.275,3.62-2.275,6.039,0,2.475.732,4.505,2.194,6.095,1.48,1.588,3.366,2.383,5.659,2.383,1.464,0,2.753-.317,3.874-.948,1.082-.613,2.356-1.806,3.818-3.575v8.042c-2.475,1.282-4.947,1.925-7.42,1.925-4.08,0-7.492-1.318-10.236-3.955-2.744-2.654-4.116-5.949-4.116-9.883s1.39-7.258,4.17-9.966,6.191-4.062,10.236-4.062c2.601,0,5.055.624,7.366,1.868Z" fill="#fff"/><path d="M160.079,353.711c0-1.064.389-1.985,1.166-2.762s1.704-1.163,2.789-1.163c1.1,0,2.039.389,2.816,1.163.775.759,1.163,1.689,1.163,2.789s-.389,2.041-1.163,2.816c-.759.777-1.689,1.166-2.789,1.166s-2.041-.389-2.816-1.166c-.777-.775-1.166-1.722-1.166-2.843ZM167.092,364.679v26.376h-6.093v-26.376h6.093Z" fill="#fff"/><path d="M176.56,377.677c0-3.809,1.363-7.049,4.089-9.722,2.724-2.672,6.048-4.009,9.964-4.009,3.937,0,7.276,1.345,10.02,4.036,2.708,2.69,4.062,5.994,4.062,9.91,0,3.955-1.363,7.267-4.089,9.939-2.744,2.654-6.111,3.982-10.101,3.982-3.955,0-7.267-1.354-9.937-4.062-2.672-2.672-4.009-6.03-4.009-10.074ZM182.788,377.785c0,2.636.705,4.723,2.113,6.256,1.444,1.552,3.348,2.329,5.713,2.329,2.383,0,4.287-.768,5.715-2.302,1.426-1.534,2.138-3.584,2.138-6.146s-.712-4.613-2.138-6.149c-1.446-1.552-3.351-2.329-5.715-2.329-2.329,0-4.215.777-5.659,2.329-1.444,1.554-2.167,3.557-2.167,6.012Z" fill="#fff"/><path d="M214.135,364.679h6.119v2.437c2.131-2.111,4.532-3.169,7.204-3.169,3.068,0,5.462.966,7.175,2.899,1.48,1.642,2.221,4.323,2.221,8.042v16.167h-6.119v-14.732c0-2.601-.362-4.395-1.082-5.39-.705-1.011-1.987-1.516-3.847-1.516-2.021,0-3.456.669-4.305,2.003-.831,1.318-1.246,3.62-1.246,6.905v12.729h-6.119v-26.376Z" fill="#fff"/><path d="M271.562,379.303h-18.902c.162,2.165.867,3.89,2.111,5.172,1.246,1.264,2.843,1.895,4.795,1.895,1.516,0,2.771-.362,3.764-1.085.975-.721,2.084-2.057,3.33-4.006l5.145,2.87c-.795,1.354-1.635,2.515-2.517,3.481-.885.966-1.832,1.758-2.845,2.383-1.011.622-2.102,1.078-3.276,1.368-1.172.287-2.446.433-3.818.433-3.937,0-7.094-1.264-9.477-3.793-2.385-2.544-3.575-5.92-3.575-10.128,0-4.17,1.154-7.546,3.465-10.126,2.329-2.547,5.417-3.82,9.261-3.82,3.883,0,6.95,1.237,9.207,3.71,2.239,2.457,3.36,5.859,3.36,10.209l-.027,1.437ZM265.305,374.32c-.849-3.25-2.897-4.875-6.146-4.875-.741,0-1.435.112-2.086.339-.649.227-1.242.55-1.774.975s-.988.934-1.368,1.529c-.377.597-.667,1.273-.865,2.032h12.239Z" fill="#fff"/><path d="M296.545,369.175l-5.037,2.679c-.795-1.624-1.779-2.437-2.953-2.437-.559,0-1.038.186-1.435.555-.397.371-.595.844-.595,1.422,0,1.013,1.174,2.014,3.521,3.007,3.232,1.39,5.405,2.672,6.526,3.845,1.118,1.174,1.678,2.753,1.678,4.741,0,2.544-.939,4.676-2.816,6.389-1.823,1.626-4.024,2.439-6.607,2.439-4.424,0-7.554-2.158-9.396-6.472l5.199-2.412c.721,1.264,1.273,2.068,1.653,2.412.739.685,1.624,1.029,2.652,1.029,2.059,0,3.088-.939,3.088-2.816,0-1.085-.795-2.095-2.383-3.034-.615-.305-1.228-.604-1.841-.894-.615-.287-1.237-.586-1.868-.894-1.77-.867-3.016-1.731-3.737-2.598-.921-1.103-1.381-2.52-1.381-4.253,0-2.291.784-4.188,2.356-5.686,1.606-1.498,3.555-2.248,5.848-2.248,3.378,0,5.886,1.743,7.53,5.228Z" fill="#fff"/><path d="M334.3,349.242v41.812h-6.31v-41.812h6.31Z" fill="#fff"/><path d="M346.177,364.679h6.119v2.437c2.129-2.111,4.532-3.169,7.202-3.169,3.07,0,5.462.966,7.177,2.899,1.48,1.642,2.221,4.323,2.221,8.042v16.167h-6.122v-14.732c0-2.601-.359-4.395-1.082-5.39-.703-1.011-1.985-1.516-3.845-1.516-2.023,0-3.458.669-4.305,2.003-.831,1.318-1.246,3.62-1.246,6.905v12.729h-6.119v-26.376Z" fill="#fff"/><path d="M385.865,370.365v20.69h-6.095v-20.69h-2.598v-5.686h2.598v-9.668h6.095v9.668h4.738v5.686h-4.738Z" fill="#fff"/><path d="M422.25,379.303h-18.902c.162,2.165.867,3.89,2.111,5.172,1.246,1.264,2.843,1.895,4.795,1.895,1.516,0,2.771-.362,3.764-1.085.975-.721,2.084-2.057,3.33-4.006l5.145,2.87c-.795,1.354-1.635,2.515-2.517,3.481-.885.966-1.832,1.758-2.845,2.383-1.011.622-2.102,1.078-3.276,1.368-1.172.287-2.446.433-3.818.433-3.937,0-7.094-1.264-9.477-3.793-2.385-2.544-3.575-5.92-3.575-10.128,0-4.17,1.154-7.546,3.465-10.126,2.329-2.547,5.417-3.82,9.261-3.82,3.883,0,6.95,1.237,9.207,3.71,2.239,2.457,3.36,5.859,3.36,10.209l-.027,1.437ZM415.993,374.32c-.849-3.25-2.897-4.875-6.146-4.875-.741,0-1.435.112-2.086.339-.649.227-1.242.55-1.774.975s-.988.934-1.368,1.529c-.377.597-.667,1.273-.865,2.032h12.239Z" fill="#fff"/><path d="M457.415,390.433c0,1.244-.04,2.342-.124,3.29-.081.948-.193,1.783-.337,2.504-.433,1.985-1.282,3.692-2.547,5.118-2.383,2.744-5.659,4.116-9.829,4.116-3.521,0-6.418-.948-8.693-2.843-2.347-1.949-3.701-4.649-4.062-8.096h6.122c.234,1.298.622,2.302,1.163,3.005,1.264,1.642,3.106,2.464,5.524,2.464,4.46,0,6.69-2.735,6.69-8.203v-3.683c-2.421,2.473-5.21,3.71-8.37,3.71-3.591,0-6.535-1.3-8.828-3.901-2.311-2.634-3.465-5.931-3.465-9.883,0-3.847,1.073-7.114,3.223-9.802,2.311-2.854,5.36-4.28,9.153-4.28,3.321,0,6.084,1.237,8.287,3.71v-2.978h6.093v25.754ZM451.565,377.922c0-2.565-.687-4.613-2.057-6.149-1.39-1.57-3.169-2.356-5.336-2.356-2.311,0-4.134.858-5.47,2.574-1.208,1.534-1.815,3.519-1.815,5.958,0,2.401.606,4.368,1.815,5.902,1.318,1.68,3.142,2.52,5.47,2.52s4.17-.849,5.524-2.547c1.246-1.534,1.868-3.501,1.868-5.902Z" fill="#fff"/><path d="M468.102,364.679h6.093v2.356c1.118-1.174,2.111-1.976,2.978-2.41.885-.451,1.931-.678,3.142-.678,1.606,0,3.285.523,5.037,1.572l-2.789,5.578c-1.157-.831-2.284-1.246-3.384-1.246-3.324,0-4.983,2.511-4.983,7.528v13.676h-6.093v-26.376Z" fill="#fff"/><path d="M510.903,364.679h6.119v26.376h-6.119v-2.762c-2.508,2.347-5.208,3.521-8.096,3.521-3.647,0-6.663-1.318-9.046-3.955-2.365-2.69-3.548-6.048-3.548-10.074,0-3.952,1.183-7.247,3.548-9.883,2.365-2.636,5.325-3.955,8.882-3.955,3.07,0,5.823,1.264,8.26,3.791v-3.059ZM496.443,377.785c0,2.529.676,4.586,2.03,6.176,1.39,1.606,3.142,2.41,5.255,2.41,2.255,0,4.078-.777,5.468-2.329,1.39-1.608,2.086-3.647,2.086-6.119s-.696-4.514-2.086-6.122c-1.39-1.57-3.193-2.356-5.414-2.356-2.095,0-3.847.795-5.255,2.383-1.39,1.608-2.084,3.593-2.084,5.958Z" fill="#fff"/><path d="M533.802,345.317v45.738h-6.093v-45.738h6.093Z" fill="#fff"/><path d="M568.534,379.303h-18.902c.162,2.165.867,3.89,2.113,5.172,1.244,1.264,2.843,1.895,4.792,1.895,1.516,0,2.771-.362,3.764-1.085.975-.721,2.086-2.057,3.33-4.006l5.147,2.87c-.795,1.354-1.635,2.515-2.52,3.481s-1.832,1.758-2.843,2.383c-1.011.622-2.104,1.078-3.276,1.368-1.174.287-2.448.433-3.818.433-3.937,0-7.096-1.264-9.479-3.793-2.383-2.544-3.575-5.92-3.575-10.128,0-4.17,1.157-7.546,3.467-10.126,2.329-2.547,5.417-3.82,9.261-3.82,3.881,0,6.95,1.237,9.207,3.71,2.239,2.457,3.357,5.859,3.357,10.209l-.027,1.437ZM562.28,374.32c-.849-3.25-2.899-4.875-6.149-4.875-.741,0-1.435.112-2.084.339-.651.227-1.242.55-1.774.975s-.988.934-1.368,1.529c-.38.597-.669,1.273-.867,2.032h12.241Z" fill="#fff"/><path d="M593.517,369.175l-5.037,2.679c-.795-1.624-1.779-2.437-2.951-2.437-.559,0-1.038.186-1.435.555-.397.371-.595.844-.595,1.422,0,1.013,1.172,2.014,3.519,3.007,3.232,1.39,5.408,2.672,6.526,3.845,1.121,1.174,1.68,2.753,1.68,4.741,0,2.544-.939,4.676-2.816,6.389-1.823,1.626-4.027,2.439-6.607,2.439-4.424,0-7.557-2.158-9.398-6.472l5.199-2.412c.723,1.264,1.273,2.068,1.653,2.412.741.685,1.626,1.029,2.654,1.029,2.057,0,3.086-.939,3.086-2.816,0-1.085-.793-2.095-2.383-3.034-.613-.305-1.226-.604-1.841-.894-.613-.287-1.235-.586-1.868-.894-1.77-.867-3.014-1.731-3.737-2.598-.921-1.103-1.381-2.52-1.381-4.253,0-2.291.786-4.188,2.356-5.686,1.608-1.498,3.557-2.248,5.85-2.248,3.375,0,5.886,1.743,7.528,5.228Z" fill="#fff"/><path d="M629.891,405.407h-6.093v-40.728h6.093v2.87c2.401-2.401,5.127-3.602,8.179-3.602,3.629,0,6.616,1.336,8.963,4.009,2.383,2.654,3.575,6.003,3.575,10.047,0,3.952-1.183,7.247-3.548,9.883-2.347,2.618-5.307,3.928-8.882,3.928-3.088,0-5.848-1.237-8.287-3.71v17.303ZM644.38,378.03c0-2.529-.687-4.586-2.059-6.176-1.39-1.606-3.142-2.41-5.253-2.41-2.239,0-4.053.777-5.444,2.329-1.39,1.554-2.086,3.593-2.086,6.119,0,2.475.696,4.514,2.086,6.122,1.372,1.57,3.178,2.356,5.417,2.356,2.111,0,3.854-.795,5.226-2.383,1.408-1.59,2.113-3.575,2.113-5.958Z" fill="#fff"/><path d="M679.491,364.679h6.119v26.376h-6.119v-2.762c-2.511,2.347-5.21,3.521-8.098,3.521-3.647,0-6.661-1.318-9.043-3.955-2.367-2.69-3.548-6.048-3.548-10.074,0-3.952,1.181-7.247,3.548-9.883,2.365-2.636,5.325-3.955,8.882-3.955,3.068,0,5.821,1.264,8.26,3.791v-3.059ZM665.029,377.785c0,2.529.678,4.586,2.032,6.176,1.39,1.606,3.142,2.41,5.253,2.41,2.257,0,4.08-.777,5.47-2.329,1.39-1.608,2.084-3.647,2.084-6.119s-.694-4.514-2.084-6.122c-1.39-1.57-3.196-2.356-5.417-2.356-2.093,0-3.845.795-5.253,2.383-1.39,1.608-2.086,3.593-2.086,5.958Z" fill="#fff"/><path d="M696.296,364.679h6.093v2.356c1.121-1.174,2.113-1.976,2.98-2.41.883-.451,1.931-.678,3.139-.678,1.608,0,3.288.523,5.037,1.572l-2.789,5.578c-1.154-.831-2.284-1.246-3.384-1.246-3.321,0-4.983,2.511-4.983,7.528v13.676h-6.093v-26.376Z" fill="#fff"/><path d="M739.098,364.679h6.119v26.376h-6.119v-2.762c-2.508,2.347-5.208,3.521-8.096,3.521-3.647,0-6.663-1.318-9.046-3.955-2.365-2.69-3.548-6.048-3.548-10.074,0-3.952,1.183-7.247,3.548-9.883,2.365-2.636,5.325-3.955,8.882-3.955,3.07,0,5.823,1.264,8.26,3.791v-3.059ZM724.638,377.785c0,2.529.676,4.586,2.03,6.176,1.39,1.606,3.142,2.41,5.255,2.41,2.255,0,4.078-.777,5.468-2.329,1.39-1.608,2.086-3.647,2.086-6.119s-.696-4.514-2.086-6.122c-1.39-1.57-3.193-2.356-5.414-2.356-2.095,0-3.847.795-5.255,2.383-1.39,1.608-2.084,3.593-2.084,5.958Z" fill="#fff"/><path d="M782.106,345.317v45.738h-6.093v-45.738h6.093Z" fill="#fff"/><path d="M812.263,364.679h6.119v26.376h-6.119v-2.762c-2.508,2.347-5.208,3.521-8.096,3.521-3.647,0-6.663-1.318-9.046-3.955-2.365-2.69-3.548-6.048-3.548-10.074,0-3.952,1.183-7.247,3.548-9.883s5.325-3.955,8.882-3.955c3.07,0,5.823,1.264,8.26,3.791v-3.059ZM797.803,377.785c0,2.529.676,4.586,2.03,6.176,1.39,1.606,3.142,2.41,5.255,2.41,2.255,0,4.078-.777,5.468-2.329,1.39-1.608,2.086-3.647,2.086-6.119s-.696-4.514-2.086-6.122c-1.39-1.57-3.193-2.356-5.414-2.356-2.095,0-3.847.795-5.255,2.383-1.39,1.608-2.084,3.593-2.084,5.958Z" fill="#fff"/><path d="M848.879,391.055l8.801-44.952,14.354,32.495,14.866-32.495,7.907,44.952h-6.472l-4.036-25.239-12.376,27.162-12.023-27.189-4.494,25.266h-6.528Z" fill="#fff"/><path d="M904.572,353.711c0-1.064.389-1.985,1.166-2.762s1.704-1.163,2.789-1.163c1.1,0,2.039.389,2.816,1.163.775.759,1.163,1.689,1.163,2.789s-.389,2.041-1.163,2.816c-.759.777-1.689,1.166-2.789,1.166s-2.041-.389-2.816-1.166c-.777-.775-1.166-1.722-1.166-2.843ZM911.585,364.679v26.376h-6.093v-26.376h6.093Z" fill="#fff"/><path d="M922.299,364.679h6.119v2.437c2.129-2.111,4.532-3.169,7.202-3.169,3.07,0,5.462.966,7.177,2.899,1.48,1.642,2.221,4.323,2.221,8.042v16.167h-6.122v-14.732c0-2.601-.359-4.395-1.082-5.39-.703-1.011-1.985-1.516-3.845-1.516-2.023,0-3.458.669-4.305,2.003-.831,1.318-1.246,3.62-1.246,6.905v12.729h-6.119v-26.376Z" fill="#fff"/><path d="M979.724,379.303h-18.902c.162,2.165.867,3.89,2.113,5.172,1.246,1.264,2.843,1.895,4.792,1.895,1.518,0,2.771-.362,3.764-1.085.977-.721,2.086-2.057,3.333-4.006l5.145,2.87c-.795,1.354-1.635,2.515-2.52,3.481s-1.832,1.758-2.843,2.383c-1.011.622-2.102,1.078-3.276,1.368-1.174.287-2.446.433-3.818.433-3.937,0-7.094-1.264-9.479-3.793-2.383-2.544-3.575-5.92-3.575-10.128,0-4.17,1.157-7.546,3.467-10.126,2.329-2.547,5.417-3.82,9.261-3.82,3.881,0,6.95,1.237,9.207,3.71,2.239,2.457,3.357,5.859,3.357,10.209l-.027,1.437ZM973.47,374.32c-.849-3.25-2.899-4.875-6.149-4.875-.739,0-1.435.112-2.084.339s-1.242.55-1.774.975-.988.934-1.368,1.529c-.38.597-.667,1.273-.867,2.032h12.241Z" fill="#fff"/><path d="M989.38,364.679h6.095v2.356c1.118-1.174,2.111-1.976,2.978-2.41.885-.451,1.931-.678,3.142-.678,1.606,0,3.285.523,5.037,1.572l-2.789,5.578c-1.157-.831-2.284-1.246-3.386-1.246-3.321,0-4.981,2.511-4.981,7.528v13.676h-6.095v-26.376Z" fill="#fff"/><path d="M1019.214,364.679v26.376h-6.095v-26.376h6.095ZM1025.713,351.681l-8.992,8.936-3.357-2.057,6.852-9.859,5.497,2.98Z" fill="#fff"/><path d="M1049.367,364.679h6.122v26.376h-6.122v-2.762c-2.508,2.347-5.208,3.521-8.096,3.521-3.647,0-6.663-1.318-9.046-3.955-2.365-2.69-3.546-6.048-3.546-10.074,0-3.952,1.181-7.247,3.546-9.883,2.365-2.636,5.327-3.955,8.884-3.955,3.068,0,5.821,1.264,8.257,3.791v-3.059ZM1034.907,377.785c0,2.529.678,4.586,2.03,6.176,1.39,1.606,3.142,2.41,5.255,2.41,2.257,0,4.08-.777,5.47-2.329,1.39-1.608,2.084-3.647,2.084-6.119s-.694-4.514-2.084-6.122c-1.39-1.57-3.196-2.356-5.417-2.356-2.095,0-3.845.795-5.253,2.383-1.392,1.608-2.086,3.593-2.086,5.958Z" fill="#fff"/></svg>