<?xml version="1.0" encoding="UTF-8"?><svg id="Layer_1" xmlns="http://www.w3.org/2000/svg" viewBox="0 0 1066.227 366.774"><path d="M3.961,358.774v-17.863c0-5.333,2.667-8,8-8h13.349l2.896,2.258v3.189H12.108c-1.44,0-2.159.704-2.159,2.11v18.748c0,1.407.719,2.11,2.159,2.11h16.098v3.189l-2.896,2.258h-13.349c-5.333,0-8-2.666-8-8Z" fill="#fff"/><path d="M45.627,358.774v-17.863c0-5.333,2.667-8,8-8h11.239c5.333,0,8,2.667,8,8v17.863c0,5.334-2.667,8-8,8h-11.239c-5.333,0-8-2.666-8-8ZM51.615,359.216c0,1.407.719,2.11,2.159,2.11h10.944c1.439,0,2.16-.703,2.16-2.11v-18.748c0-1.406-.72-2.11-2.16-2.11h-10.944c-1.44,0-2.159.704-2.159,2.11v18.748Z" fill="#fff"/><path d="M92.005,366.774v-33.863h7.362l10.159,21.692,10.159-21.692h7.362v33.863h-6.037v-23.655l-8.932,19.042h-5.153l-8.932-19.042v23.655h-5.988Z" fill="#fff"/><path d="M146.677,366.774v-33.863h22.772v5.447h-16.785v8.147h15.312v5.447h-15.312v9.374h16.785v5.447h-22.772Z" fill="#fff"/><path d="M187.363,366.774v-33.863h16.294c5.333,0,8,2.667,8,8v5.546c0,4.122-1.637,6.625-4.908,7.509l5.889,11.532-.736,1.276h-5.104l-6.282-12.367h-7.166v12.367h-5.988ZM193.35,348.959h10.159c1.439,0,2.159-.72,2.159-2.16v-6.331c0-1.406-.72-2.11-2.159-2.11h-10.159v10.602Z" fill="#fff"/><path d="M229.814,358.774v-17.863c0-5.333,2.667-8,8-8h13.349l2.896,2.258v3.189h-16.098c-1.44,0-2.159.704-2.159,2.11v18.748c0,1.407.719,2.11,2.159,2.11h16.098v3.189l-2.896,2.258h-13.349c-5.333,0-8-2.666-8-8Z" fill="#fff"/><path d="M271.972,366.774v-33.863h5.988v33.863h-5.988Z" fill="#fff"/><path d="M294.351,365.596l10.454-32.686h9.325l10.404,32.686-.736,1.178h-5.055l-2.307-7.46h-13.987l-2.355,7.46h-4.957l-.785-1.178ZM304.118,353.867h10.699l-4.908-15.509h-.933l-4.858,15.509Z" fill="#fff"/><path d="M340.926,366.774v-33.863h5.988v28.416h15.312v5.447h-21.3Z" fill="#fff"/><path d="M378.863,366.774v-33.863h5.988v33.863h-5.988Z" fill="#fff"/><path d="M402.519,366.774v-4.662l17.227-23.754h-16.736v-5.447h24.293v4.662l-17.226,23.754h17.717v5.447h-25.275Z" fill="#fff"/><path d="M442.223,365.596l10.454-32.686h9.325l10.404,32.686-.736,1.178h-5.055l-2.307-7.46h-13.987l-2.355,7.46h-4.957l-.785-1.178ZM451.989,353.867h10.699l-4.908-15.509h-.933l-4.858,15.509Z" fill="#fff"/><path d="M488.307,358.774v-17.863c0-5.333,2.667-8,8-8h13.349l2.896,2.258v3.189h-16.098c-1.44,0-2.159.704-2.159,2.11v18.748c0,1.407.719,2.11,2.159,2.11h16.098v3.189l-2.896,2.258h-13.349c-5.333,0-8-2.666-8-8Z" fill="#fff"/><path d="M530.464,366.774v-33.863h5.988v33.863h-5.988Z" fill="#fff"/><path d="M555.591,358.774v-17.863c0-5.333,2.667-8,8-8h11.239c5.333,0,8,2.667,8,8v17.863c0,5.334-2.667,8-8,8h-11.239c-5.333,0-8-2.666-8-8ZM561.579,359.216c0,1.407.719,2.11,2.159,2.11h10.944c1.439,0,2.16-.703,2.16-2.11v-18.748c0-1.406-.72-2.11-2.16-2.11h-10.944c-1.44,0-2.159.704-2.159,2.11v18.748Z" fill="#fff"/><path d="M601.969,366.774v-33.863h6.528l15.018,24.146v-24.146h5.987v33.863h-6.478l-15.067-24.146v24.146h-5.988Z" fill="#fff"/><path d="M668.96,334.088l.736-1.178h5.104l8,15.361,8.049-15.361h5.153l.687,1.178-10.846,20.515v12.171h-6.037v-12.171l-10.846-20.515Z" fill="#fff"/><path d="M734.674,364.516v-3.189h15.165c1.439,0,2.16-.703,2.16-2.11v-3.73c0-1.242-.557-1.979-1.669-2.208l-9.963-2.013c-3.795-.752-5.693-3.304-5.693-7.655v-2.699c0-5.333,2.667-8,8-8h11.435l2.896,2.258v3.189h-14.184c-1.44,0-2.159.704-2.159,2.11v3.289c0,1.243.556,1.979,1.668,2.208l9.963,1.963c3.795.785,5.693,3.337,5.693,7.656v3.189c0,5.334-2.667,8-8,8h-12.417l-2.896-2.258Z" fill="#fff"/><path d="M776.144,366.774v-33.863h22.772v5.447h-16.785v8.147h15.312v5.447h-15.312v9.374h16.785v5.447h-22.772Z" fill="#fff"/><path d="M816.83,366.774v-33.863h16.294c5.333,0,8,2.667,8,8v5.546c0,4.122-1.637,6.625-4.908,7.509l5.889,11.532-.736,1.276h-5.104l-6.282-12.367h-7.166v12.367h-5.988ZM822.818,348.959h10.159c1.439,0,2.159-.72,2.159-2.16v-6.331c0-1.406-.72-2.11-2.159-2.11h-10.159v10.602Z" fill="#fff"/><path d="M856.534,334.088l.785-1.178h5.202l8.393,28.416h.932l8.393-28.416h5.251l.736,1.178-10.012,32.686h-9.717l-9.963-32.686Z" fill="#fff"/><path d="M902.617,366.774v-33.863h5.988v33.863h-5.988Z" fill="#fff"/><path d="M927.745,358.774v-17.863c0-5.333,2.667-8,8-8h13.349l2.896,2.258v3.189h-16.098c-1.44,0-2.159.704-2.159,2.11v18.748c0,1.407.719,2.11,2.159,2.11h16.098v3.189l-2.896,2.258h-13.349c-5.333,0-8-2.666-8-8Z" fill="#fff"/><path d="M969.902,366.774v-33.863h5.988v33.863h-5.988Z" fill="#fff"/><path d="M995.03,358.774v-17.863c0-5.333,2.667-8,8-8h11.239c5.333,0,8,2.667,8,8v17.863c0,5.334-2.667,8-8,8h-11.239c-5.333,0-8-2.666-8-8ZM1001.017,359.216c0,1.407.719,2.11,2.159,2.11h10.944c1.439,0,2.16-.703,2.16-2.11v-18.748c0-1.406-.72-2.11-2.16-2.11h-10.944c-1.44,0-2.159.704-2.159,2.11v18.748Z" fill="#fff"/><path d="M1039.935,364.516v-3.189h15.165c1.439,0,2.16-.703,2.16-2.11v-3.73c0-1.242-.557-1.979-1.669-2.208l-9.963-2.013c-3.795-.752-5.693-3.304-5.693-7.655v-2.699c0-5.333,2.667-8,8-8h11.435l2.896,2.258v3.189h-14.184c-1.44,0-2.159.704-2.159,2.11v3.289c0,1.243.556,1.979,1.668,2.208l9.963,1.963c3.795.785,5.693,3.337,5.693,7.656v3.189c0,5.334-2.667,8-8,8h-12.417l-2.896-2.258Z" fill="#fff"/><path d="M59.717,94.877h157.702c4.482,0,8.477.842,11.986,2.523,3.502,1.682,6.164,4.205,7.991,7.57,1.82,3.365,2.733,7.149,2.733,11.355v16.822c0,6.452-2.037,11.638-6.098,15.56-4.067,3.929-9.607,5.888-16.611,5.888H59.717v-59.718ZM303.209,305.149l-59.625-98.074c8.696-1.241,16.518-3.729,23.459-7.483,10.368-5.605,18.293-13.522,23.76-23.76,5.467-10.231,8.2-22.217,8.2-35.957v-34.064c0-12.616-2.878-23.825-8.621-33.642-5.75-9.811-13.95-17.381-24.602-22.71-10.658-5.322-22.854-7.991-36.587-7.991H0v263.681h59.717v-97.146h115.079l61.547,97.146h66.866Z" fill="#fff"/><polygon points="1008.192 41.468 882.475 186.157 757.13 41.468 697.834 41.468 697.834 305.149 755.448 305.149 755.448 126.292 865.629 252.582 900.534 252.582 1008.613 127.341 1008.613 305.149 1066.227 305.149 1066.227 41.468 1008.192 41.468" fill="#fff"/><path d="M353.564,134.875h89.458c1.394,0,2.526,1.132,2.526,2.526v163.027c0,4.183-3.396,7.579-7.579,7.579h-79.352c-4.183,0-7.579-3.396-7.579-7.579v-163.027c0-1.394,1.132-2.526,2.526-2.526Z" transform="translate(368.771 -233.313) rotate(57.213)" fill="#fff"/><path d="M666.948,237.303l-23.573-67.439c-.424-.657-1.091-1.12-1.855-1.285l-182.005-39.393c-2.568-.556-4.526,2.271-3.103,4.479l46.664,72.436c.424.657,1.091,1.12,1.855,1.285l158.914,34.395c2.568.556,4.526-2.271,3.103-4.479Z" fill="#fff"/><path d="M503.5,48.166l2.286,79.635c.037,1.296-1.152,2.284-2.419,2.01l-47.44-10.268c-.919-.199-1.575-1.011-1.575-1.952l-.038-115.59c0-1.497,1.586-2.463,2.916-1.775l23.935,12.389c13.352,6.911,21.903,20.522,22.334,35.55Z" fill="#fff"/></svg>